<svg xmlns="http://www.w3.org/2000/svg" viewBox="0 0 632 666" width="64" height="64">
<!-- White fill layer -->
<g transform="translate(0,666) scale(0.1,-0.1)" fill="#ffffff" stroke="none">
<path d="M5513 6452 c-30 -5 -29 -14 12 -129 60 -165 132 -471 159 -673 21
-162 39 -458 32 -532 -3 -35 -8 -106 -11 -158 -15 -226 -76 -547 -145 -765
-27 -82 -88 -245 -142 -375 -10 -23 -2 -42 70 -166 207 -359 332 -684 426
-1110 38 -171 82 -464 73 -486 -4 -11 -50 -17 -178 -27 -301 -21 -427 -45
-673 -125 -310 -102 -536 -236 -778 -461 -141 -132 -232 -244 -489 -602 -199
-275 -337 -384 -584 -459 -83 -26 -103 -28 -270 -28 -160 -1 -189 2 -260 22
-101 30 -205 79 -291 138 l-67 46 32 -40 c34 -44 128 -132 141 -132 4 0 25
-14 46 -31 59 -47 157 -93 269 -125 93 -27 112 -29 260 -28 274 1 441 57 620
208 97 82 121 109 233 268 241 342 303 420 452 568 209 208 433 358 681 455
63 25 121 49 130 54 19 11 159 51 196 56 15 2 58 11 96 20 91 21 372 55 479
58 86 2 87 2 83 27 -2 14 -11 75 -20 135 -76 526 -234 1004 -467 1408 l-86
148 13 42 c7 23 29 84 50 135 43 110 106 299 130 392 16 60 29 131 69 360 21
121 39 438 32 550 -3 52 -9 138 -12 190 -9 146 -55 442 -88 570 -45 169 -181
589 -194 601 -4 3 -17 3 -29 1z"/>
<path d="M667 6293 c-120 -362 -174 -656 -184 -1008 -14 -482 78 -945 274
-1381 l54 -121 -56 -89 c-247 -393 -405 -793 -494 -1249 -16 -82 -32 -171 -36
-198 l-6 -47 68 0 c170 0 512 -71 713 -148 327 -126 555 -271 805 -514 156
-151 264 -284 568 -705 72 -99 204 -203 315 -248 117 -48 179 -59 327 -59 164
0 225 13 360 79 112 54 208 133 278 228 29 39 96 130 148 201 305 417 479 597
746 775 323 216 755 362 1145 388 54 3 101 10 104 14 8 14 -44 292 -86 454
-92 358 -219 660 -413 983 l-83 138 58 135 c68 158 158 425 188 559 51 229 71
397 77 640 8 345 -27 629 -117 963 -36 131 -102 332 -113 344 -7 7 -287 -115
-395 -172 -490 -260 -859 -597 -1179 -1078 -98 -147 -108 -158 -132 -154 -14
2 -93 17 -176 33 -139 26 -168 28 -400 29 -258 0 -351 -9 -548 -55 l-78 -18
-23 37 c-93 146 -163 249 -227 332 -290 379 -645 673 -1071 890 -104 52 -347
159 -364 159 -1 0 -22 -62 -47 -137z"/>
<path d="M216 2021 c-4 -5 -9 -37 -12 -70 l-7 -61 29 -1 c248 -9 410 -31 649
-89 169 -41 242 -68 408 -149 169 -83 332 -187 436 -280 113 -101 66 -36 -59
80 -334 313 -766 508 -1248 564 -147 17 -189 19 -196 6z"/>
</g>
<!-- Black outlines and details -->
<g transform="translate(0,666) scale(0.1,-0.1)" fill="#000000" stroke="none">
<path d="M677 6283 c-120 -362 -174 -656 -184 -1008 -14 -482 78 -945 274
-1381 l54 -121 -56 -89 c-247 -393 -405 -793 -494 -1249 -16 -82 -32 -171 -36
-198 l-6 -47 68 0 c170 0 512 -71 713 -148 327 -126 555 -271 805 -514 156
-151 264 -284 568 -705 72 -99 204 -203 315 -248 117 -48 179 -59 327 -59 164
0 225 13 360 79 112 54 208 133 278 228 29 39 96 130 148 201 305 417 479 597
746 775 323 216 755 362 1145 388 54 3 101 10 104 14 8 14 -44 292 -86 454
-91 355 -212 645 -406 971 -46 78 -84 146 -84 153 0 6 26 73 59 148 69 162
151 408 181 543 51 229 71 397 77 640 8 345 -27 629 -117 963 -36 131 -102
332 -113 344 -7 7 -287 -115 -395 -172 -490 -260 -859 -597 -1179 -1078 -98
-147 -108 -158 -132 -154 -14 2 -93 17 -176 33 -139 26 -168 28 -400 29 -252
0 -354 -10 -530 -51 -100 -23 -96 -25 -166 88 -34 56 -105 159 -158 229 -302
401 -653 696 -1093 920 -104 52 -347 159 -364 159 -1 0 -22 -62 -47 -137z
m284 -168 c554 -278 970 -673 1294 -1230 32 -55 60 -102 61 -104 2 -2 30 4 61
13 348 104 626 128 952 81 98 -15 298 -62 365 -88 25 -9 31 -8 47 14 10 13 19
27 19 31 0 13 99 176 166 273 144 210 266 352 444 521 193 182 448 358 707
488 100 50 129 56 137 29 62 -213 72 -256 105 -448 36 -204 45 -299 45 -500 0
-230 -12 -351 -59 -590 -48 -243 -131 -493 -241 -723 -30 -63 -54 -119 -54
-125 0 -7 34 -63 75 -125 88 -130 220 -371 277 -504 76 -177 202 -577 186
-593 -2 -2 -58 14 -124 36 -65 22 -148 46 -184 54 -117 24 -299 36 -430 27
l-125 -7 92 -13 c203 -27 432 -105 606 -204 59 -34 107 -65 107 -70 0 -4 -10
-8 -22 -8 -36 0 -204 -38 -298 -66 -457 -138 -788 -332 -1103 -646 -82 -82
-151 -148 -154 -148 -13 0 7 250 27 325 24 93 76 208 125 277 19 26 33 48 31
48 -2 0 -33 -29 -67 -65 -138 -142 -220 -331 -258 -595 -32 -221 -43 -251
-117 -330 -104 -112 -307 -146 -457 -77 -88 40 -107 66 -107 147 l0 68 48 31
c105 67 188 174 242 311 l20 51 -45 20 c-121 54 -305 79 -438 60 -105 -15
-267 -69 -267 -89 0 -8 20 -57 44 -108 49 -103 112 -178 202 -240 l54 -37 0
-67 c0 -82 -17 -108 -94 -144 -172 -81 -400 -31 -495 108 -43 63 -59 117 -86
295 -43 282 -115 448 -259 595 -43 45 -71 70 -62 56 9 -14 28 -43 43 -65 42
-63 81 -154 102 -237 30 -118 53 -349 34 -347 -5 0 -46 43 -93 94 -216 237
-502 444 -797 575 -204 91 -568 200 -670 200 -13 0 -23 3 -23 8 0 11 165 106
247 141 147 64 344 118 503 137 l65 8 -110 8 c-219 15 -455 -16 -657 -87 -55
-19 -103 -35 -105 -35 -17 0 43 218 117 425 77 214 227 506 356 691 35 51 64
100 64 110 0 10 -29 79 -64 154 -35 75 -71 156 -79 181 -9 24 -30 82 -47 129
-61 167 -126 450 -150 654 -16 132 -14 519 4 656 19 148 68 390 102 505 14 50
29 98 31 108 8 27 37 21 134 -28z m2127 -5125 c98 -59 158 -75 285 -75 59 0
107 -3 107 -6 0 -19 -133 -126 -186 -151 -134 -62 -321 -74 -466 -29 -96 30
-258 143 -258 180 0 3 48 6 108 6 124 0 205 22 287 80 28 18 51 34 53 34 2 1
33 -17 70 -39z"/>
<path d="M1680 3254 c88 -107 87 -105 119 -210 25 -84 83 -169 148 -219 59
-45 174 -81 316 -98 77 -10 113 -19 128 -33 31 -27 109 -145 164 -246 26 -49
48 -88 49 -88 9 0 -20 219 -39 296 -41 162 -153 353 -237 404 -28 17 -649 267
-707 285 -17 5 -3 -17 59 -91z"/>
<path d="M4405 3340 c-11 -5 -168 -68 -350 -140 -292 -116 -335 -136 -374
-173 -90 -86 -166 -228 -206 -382 -16 -63 -39 -247 -33 -265 2 -6 32 38 66 99
94 165 144 229 184 235 316 48 366 65 447 151 56 59 90 121 119 217 19 64 52
112 170 251 16 18 9 21 -23 7z"/>
</g>
</svg>